<svg width="1472" height="512" viewBox="0 0 1472 512" xmlns="http://www.w3.org/2000/svg" style="display:block" preserveAspectRatio="xMidYMid meet"><svg x="21" y="23" width="397" height="467" xmlns="http://www.w3.org/2000/svg" style="display:block" preserveAspectRatio="none"><svg version="1.1" xmlns="http://www.w3.org/2000/svg" style="display: block;" width="397" height="467" viewBox="-0.01 0.00 1741.02 2048.00" preserveAspectRatio="none"><g id="svg-group-7bbd190e-c43f-4fe1-8eb3-dd92e8188fb4">
<path transform="translate(0,0)" fill="rgba(245, 158, 11, 1)" d="M 1499.18 823.408 C 1503.8 823.068 1508.76 823.335 1513.43 823.252 C 1556.82 822.482 1597.29 822.608 1640.35 828.573 C 1636.13 839.02 1633.34 844.233 1625.28 852.337 C 1592.58 887.236 1557.33 918.401 1522.56 950.947 C 1489.32 982.07 1455.18 1013.13 1422.24 1044.47 L 1154.39 1300.28 C 1138.08 1315.79 1120.93 1330.67 1104.39 1346.01 C 1073.01 1375.11 1043.66 1405.7 1012.08 1434.59 C 978.925 1464.92 950.493 1501.96 912.411 1526.7 C 899.152 1534.95 886.628 1536.53 871.794 1536.84 C 827.917 1537.79 796.824 1497.91 766.811 1467.88 L 700.732 1402.76 C 693.003 1395.09 685.858 1386.44 677.903 1379.05 C 651.093 1354.11 623.878 1330.46 598.286 1304.24 C 580.709 1286.23 559.076 1269.3 541.482 1251.32 C 513.669 1223.18 487.947 1200.08 459.406 1173.4 L 372.595 1091.11 C 349.843 1069.43 328.081 1046.18 305.567 1024.21 C 296.866 1014.64 285.66 1006.72 276.804 997.477 C 236.629 955.503 191.704 918.596 151.026 877.232 C 142.641 868.706 109.245 841.49 112.842 829.885 C 121.082 826.611 196.069 827.813 209.543 827.813 L 353.823 827.821 L 1085.29 827.807 L 1310.3 827.826 L 1407.39 827.835 C 1430.7 827.836 1455 828.842 1478.12 825.672 C 1485.12 824.713 1492.15 823.981 1499.18 823.408 z"/>
<path transform="translate(0,0)" fill="rgba(47, 128, 95, 1)" d="M 574.363 1610.22 C 587.537 1596.84 603.814 1582.04 617.638 1569.34 C 629.423 1558.52 658.154 1527.76 672.979 1525.63 C 677.269 1526.91 747.145 1595.23 761.019 1605.64 C 836.384 1662.19 927.505 1655.79 997.979 1595.31 C 1022.76 1574.05 1049.56 1531.48 1082.16 1525.3 C 1095.39 1533.86 1138.4 1577.96 1152.3 1591.41 L 1287.02 1720.48 L 1525.49 1947.57 C 1546.54 1967.78 1616.41 2024.28 1622.95 2048 L 127.689 2048 C 127.669 2044.78 127.224 2038.01 129.794 2035.55 C 138.721 2027.15 148.118 2019.37 156.847 2010.74 C 190.604 1977.39 222.882 1942.5 259.309 1911.99 C 265.855 1906.5 271.972 1899.29 278.303 1893.47 C 283.472 1888.71 288.228 1882.82 293.893 1878.72 C 300.655 1870.73 345.031 1826.61 351.764 1821.92 C 354.835 1817.64 378.001 1798.28 383.105 1793.82 C 389.292 1786.38 423.181 1752.85 430.817 1746.36 C 431.954 1744.85 444.284 1732.66 446.504 1730.6 C 472.676 1706.26 498.563 1679.27 525.424 1655.81 C 536.197 1643.71 561.098 1620.76 574.363 1610.22 z"/>
<path transform="translate(0,0)" fill="rgba(70, 173, 226, 1)" d="M 293.893 1878.72 C 300.655 1870.73 345.031 1826.61 351.764 1821.92 C 351.702 1822.34 351.239 1825.54 351.239 1825.54 C 343.232 1833.98 302.513 1878.32 293.893 1878.72 z"/>
<path transform="translate(0,0)" fill="rgba(70, 173, 226, 1)" d="M 525.424 1655.81 C 536.197 1643.71 561.098 1620.76 574.363 1610.22 C 574.076 1611.72 573.889 1612.8 573.676 1614.33 C 569.605 1619.63 532 1655.02 526.922 1656.34 L 525.424 1655.81 z"/>
<path transform="translate(0,0)" fill="rgba(70, 173, 226, 1)" d="M 430.817 1746.36 C 432.162 1753.38 393.259 1788.29 385.558 1793.67 C 385.182 1793.94 383.607 1793.84 383.105 1793.82 C 389.292 1786.38 423.181 1752.85 430.817 1746.36 z"/>
<path transform="translate(0,0)" fill="rgba(47, 128, 95, 1)" d="M 24.1829 907.845 C 28.5422 915.214 45.5563 925.347 53.5932 932.773 L 181.038 1052.83 C 193.46 1064.37 205.07 1077.74 217.82 1089.76 L 433.408 1295.57 C 459.271 1320.75 484.868 1341.83 510.623 1367.66 L 529.09 1386.19 C 546.265 1403.36 563.076 1419.25 581.986 1434.43 C 583.818 1435.9 585.502 1438.22 585.974 1440.57 C 584.991 1446.8 573.093 1465.21 568.827 1468.23 C 563.76 1475.83 532.768 1505.84 525.184 1511.95 C 523.652 1513.62 522.429 1515.21 520.606 1516.5 C 514.389 1523.79 505.879 1530.71 498.707 1537.24 C 460.471 1572.07 425.355 1609.58 386.259 1643.58 C 371.391 1656.51 358.589 1672.23 343.189 1684.99 C 342.604 1685.62 341.679 1686.77 341.017 1687.14 C 335.293 1694.23 322.744 1704.57 315.582 1711.83 C 287.482 1740.3 257.764 1767.54 228.578 1794.93 C 210.619 1811.78 193.793 1829.49 175.207 1845.7 C 169.36 1850.8 162.753 1858.36 156.574 1862.69 C 154.068 1865.78 148.049 1872.49 144.816 1874.53 C 127.673 1889.62 111.6 1907.41 95.1463 1923.34 C 88.1997 1930.06 78.8242 1940.42 71.242 1945.96 C 57.6375 1960.25 46.2929 1970.94 29.4484 1981.42 C 25.0696 1979.95 24.0205 1979.71 19.4266 1979.25 C 12.2416 1971.33 9.49006 1967.71 0 1962.92 L 0 936.026 C 11.7252 925.827 11.3542 919.241 24.1829 907.845 z"/>
<path transform="translate(0,0)" fill="rgba(70, 173, 226, 1)" d="M 156.574 1862.69 C 159.929 1852.77 176.971 1838.76 185.215 1830.61 C 210.227 1805.88 235.659 1781.56 261.501 1757.69 C 283.415 1737.29 304.493 1716.24 326.177 1695.62 C 331.426 1690.63 334.225 1686.92 341.017 1687.14 C 335.293 1694.23 322.744 1704.57 315.582 1711.83 C 287.482 1740.3 257.764 1767.54 228.578 1794.93 C 210.619 1811.78 193.793 1829.49 175.207 1845.7 C 169.36 1850.8 162.753 1858.36 156.574 1862.69 z"/>
<path transform="translate(0,0)" fill="rgba(70, 173, 226, 1)" d="M 343.189 1684.99 C 343.328 1682.44 342.991 1681.13 344.824 1679.1 C 357.603 1664.93 373.572 1650.32 387.393 1637.22 C 419.25 1607.28 449.637 1575.23 482.748 1546.7 C 491.44 1539.22 510.959 1517.94 520.606 1516.5 C 514.389 1523.79 505.879 1530.71 498.707 1537.24 C 460.471 1572.07 425.355 1609.58 386.259 1643.58 C 371.391 1656.51 358.589 1672.23 343.189 1684.99 z"/>
<path transform="translate(0,0)" fill="rgba(70, 173, 226, 1)" d="M 71.242 1945.96 C 71.1219 1941.8 72.7484 1939.87 75.8749 1936.71 C 96.1527 1916.2 116.226 1894.12 138.655 1875.99 C 140.199 1874.74 142.959 1874.64 144.816 1874.53 C 127.673 1889.62 111.6 1907.41 95.1463 1923.34 C 88.1997 1930.06 78.8242 1940.42 71.242 1945.96 z"/>
<path transform="translate(0,0)" fill="rgba(70, 173, 226, 1)" d="M 525.184 1511.95 C 525.141 1508.45 525.721 1506.38 528.437 1503.85 C 535.827 1496.97 560.312 1468.81 568.827 1468.23 C 563.76 1475.83 532.768 1505.84 525.184 1511.95 z"/>
<path transform="translate(0,0)" fill="rgba(47, 128, 95, 1)" d="M 1564.59 1057.37 C 1576.9 1036.85 1613.79 1010.55 1632.41 993.869 C 1661.4 967.9 1689.38 931.214 1725.06 914.946 C 1729.49 912.927 1738.3 922.424 1741 925.297 L 1741 1965.05 C 1737.49 1967.07 1734.43 1970.48 1731.45 1973.08 C 1718.31 1984.25 1708.74 1974.42 1698.98 1965.62 C 1678.61 1947.27 1659 1928.59 1639.07 1909.81 C 1634.12 1905.15 1628.08 1900.09 1623.72 1895.07 C 1616.53 1890.09 1607.24 1879.97 1600.97 1873.46 C 1598.54 1872.05 1584.11 1858.4 1581.19 1855.78 C 1549.13 1827.09 1518.95 1796.06 1488.09 1766.16 L 1441.06 1720.62 C 1434.54 1714.29 1422.34 1703.25 1416.89 1696.77 C 1409.44 1691.95 1401.47 1683.05 1395.19 1676.48 C 1384.03 1667.38 1368.67 1652.87 1359.61 1641.95 C 1354.22 1638.29 1348.78 1632.2 1343.77 1627.8 C 1330.08 1615.78 1318.12 1604.26 1305.43 1591.14 C 1300.15 1587.94 1288.85 1575.14 1283.57 1570.16 L 1216.82 1507.16 C 1207.35 1498.06 1171.02 1460.35 1162.31 1456.06 C 1161.79 1451.35 1161.52 1446.75 1161.22 1442.02 C 1172.41 1428.19 1180.66 1421.24 1192.93 1409.19 C 1218.73 1383.83 1245.39 1359.35 1271.57 1334.33 L 1361.36 1249.37 C 1388 1223.71 1412.66 1196.47 1441.03 1172.86 C 1447.84 1167.19 1454.53 1160.69 1461.23 1154.78 C 1469.41 1145.81 1495.37 1119.42 1503.83 1113.25 C 1515.19 1103.57 1524.25 1093.41 1536.92 1083.6 C 1544.07 1075.37 1556.14 1063.73 1564.59 1057.37 z"/>
<path transform="translate(0,0)" fill="rgba(70, 173, 226, 1)" d="M 1305.43 1591.14 C 1307.74 1590.74 1309.02 1590.76 1311.12 1592.8 C 1320.58 1601.94 1356.27 1632.33 1359.61 1641.95 C 1354.22 1638.29 1348.78 1632.2 1343.77 1627.8 C 1330.08 1615.78 1318.12 1604.26 1305.43 1591.14 z"/>
<path transform="translate(0,0)" fill="rgba(70, 173, 226, 1)" d="M 1503.83 1113.25 L 1504.6 1115.45 C 1500.75 1121.61 1468.48 1155.17 1461.23 1154.78 C 1469.41 1145.81 1495.37 1119.42 1503.83 1113.25 z"/>
<path transform="translate(0,0)" fill="rgba(70, 173, 226, 1)" d="M 1536.92 1083.6 C 1544.07 1075.37 1556.14 1063.73 1564.59 1057.37 L 1565.01 1059.27 L 1564.34 1060.01 C 1558.88 1066.12 1546.7 1084.11 1536.92 1083.6 z"/>
<path transform="translate(0,0)" fill="rgba(70, 173, 226, 1)" d="M 1600.97 1873.46 C 1608.87 1875.06 1620.87 1887.16 1623.53 1894.56 L 1623.72 1895.07 C 1616.53 1890.09 1607.24 1879.97 1600.97 1873.46 z"/>
<path transform="translate(0,0)" fill="rgba(70, 173, 226, 1)" d="M 1395.19 1676.48 L 1396.94 1675.88 C 1403.15 1679.18 1414.27 1690.03 1416.89 1696.77 C 1409.44 1691.95 1401.47 1683.05 1395.19 1676.48 z"/>
<path transform="translate(0,0)" fill="rgba(245, 158, 11, 1)" d="M 831.515 0 L 913.713 0 C 933.673 15.8111 941.077 8.83101 962.871 11.9495 C 971.27 13.1512 992.577 18.7625 1001.47 20.999 C 1076.15 39.7907 1146.59 70.3807 1208.55 116.474 C 1233.3 134.883 1254.9 150.438 1277 173.458 C 1357.22 257.06 1409.35 350.521 1430.02 465.124 C 1431.84 473.049 1431.42 482.848 1433.11 490.579 C 1441.35 528.21 1440.5 564.538 1440.22 602.886 C 1440 632.819 1440.66 663.32 1440.14 693.488 C 1436.3 700.151 1431.73 706.368 1426.52 712.027 C 1396.61 722.273 1349.22 716.181 1316.96 717.698 C 1305.59 718.233 1280.82 715.051 1277.75 703.471 C 1273.7 688.176 1275.83 657.048 1275.54 639.938 C 1275.02 609.25 1276.54 578.507 1275.03 547.925 C 1274.13 537.959 1271.26 527.9 1270.09 518.025 C 1257.42 410.988 1195.09 311.083 1108.29 247.694 C 1039.7 198.626 957.681 171.855 873.357 171.018 C 771.308 170.784 666.031 217.35 594.368 289.536 C 537.35 345.843 498.992 418.295 484.476 497.103 C 483.076 504.608 482.7 512.434 481.485 519.972 C 471.756 580.328 474.205 641.769 474.394 702.916 C 469.451 708.815 465.393 712.511 459.11 716.811 C 443.099 719.229 347.989 718.963 333.846 716.438 C 322.84 714.473 316.19 707.904 310.049 699.091 C 309.898 697.103 309.785 695.112 309.709 693.119 C 308.872 664.777 310.147 635.717 309.671 607.297 C 309.453 594.218 309.363 579.896 309.92 566.847 C 312.87 488.97 330.108 412.298 360.774 340.652 C 376.017 305.002 386.716 283.109 410.706 252.14 C 428.702 228.907 447.022 197.44 468.337 176.796 C 539.117 108.244 626.367 53.4142 721.951 27.7453 C 755.659 18.5995 781.157 11.2651 816.608 10.8918 C 823.028 6.99674 825.712 4.86501 831.515 0 z"/>
</g></svg></svg><svg x="465" y="196" width="967" height="190" xmlns="http://www.w3.org/2000/svg" style="display:block" preserveAspectRatio="none"><svg version="1.1" xmlns="http://www.w3.org/2000/svg" style="display: block;" width="967" height="190" viewBox="-8.57 0.00 2065.13 405.76" preserveAspectRatio="none"><g id="svg-group-f25c17a3-c04c-4e71-88ae-7bd21805290b">
<path transform="translate(0,0)" fill="rgba(23, 63, 98, 1)" d="M 1020.46 122.965 C 1038.04 118.693 1134.17 118.923 1153.82 122.435 C 1191.25 126.921 1217.55 147.427 1217.77 187.148 C 1219.06 192.996 1220.67 239.516 1220.15 246.607 C 1220.74 256.462 1221.49 331.769 1220.07 337.543 C 1220.45 348.486 1221.03 375.646 1216.87 385.181 C 1216.79 387.598 1216.24 389.049 1215.54 391.331 C 1205.61 404.487 1130.51 399.083 1113.07 399.727 C 1064.87 401.97 995.064 405.765 984.043 343.486 C 979.324 316.825 980.133 275.619 997.632 253.794 C 1028.26 215.599 1098.48 235.321 1141.38 228.975 C 1150.14 227.68 1151.52 223.98 1156.07 217.329 L 1155.87 195.116 C 1150.57 185.647 1142.12 178.764 1130.82 178.846 C 1113.66 179.109 1096.49 179.115 1079.33 178.864 C 1060.01 178.589 1016.14 186.294 1000.45 175.042 C 992.676 166.98 992.781 138.619 1000.78 129.231 C 1006.53 124.077 1013.25 123.446 1020.46 122.965 z M 1048.23 299.628 C 1047.63 308 1047.49 317.552 1049.05 325.837 C 1052.91 334.203 1056.39 341.403 1066.27 341.308 C 1094.82 341.035 1124.33 338.236 1152.97 338.804 L 1152.86 285.371 L 1092.54 285.021 C 1085.6 284.989 1069.26 284.484 1062.87 285.137 C 1058.96 288.981 1051.47 295.826 1048.23 299.628 z"/>
<path transform="translate(0,0)" fill="rgba(95, 118, 147, 1)" d="M 1020.46 122.965 C 1038.04 118.693 1134.17 118.923 1153.82 122.435 C 1150.72 124.5 1130.55 123.118 1125.49 123.038 C 1104.37 122.698 1083.23 122.843 1062.12 123.473 C 1055.44 123.639 1028.52 124.681 1023.02 123.616 C 1022.15 123.444 1021.3 123.227 1020.46 122.965 z"/>
<path transform="translate(0,0)" fill="rgba(95, 118, 147, 1)" d="M 1220.15 246.607 C 1218.81 244.085 1217.57 232.401 1217.06 228.92 L 1217.21 233.101 C 1215.57 230.327 1215.38 192.4 1216.36 187.992 L 1217.77 187.148 C 1219.06 192.996 1220.67 239.516 1220.15 246.607 z"/>
<path transform="translate(0,0)" fill="rgba(95, 118, 147, 1)" d="M 1079.33 178.864 C 1082.1 172.913 1123.24 175.923 1129.99 177.494 L 1130.82 178.846 C 1113.66 179.109 1096.49 179.115 1079.33 178.864 z"/>
<path transform="translate(0,0)" fill="rgba(95, 118, 147, 1)" d="M 1220.07 337.543 C 1220.45 348.486 1221.03 375.646 1216.87 385.181 C 1213.56 374.952 1216.34 349.068 1220.07 337.543 z"/>
<path transform="translate(0,0)" fill="rgba(95, 118, 147, 1)" d="M 1000.78 129.231 C 998.161 150.066 996.483 153.299 1000.45 175.042 C 992.676 166.98 992.781 138.619 1000.78 129.231 z"/>
<path transform="translate(0,0)" fill="rgba(129, 149, 174, 1)" d="M 1152.86 285.371 L 1155.61 285.54 C 1158.02 289.211 1157 333.84 1156.63 341.023 C 1127.31 341.565 1097.84 344.957 1068.62 343.882 C 1059.28 343.539 1049.36 338.246 1048.09 328.147 L 1049.05 325.837 C 1052.91 334.203 1056.39 341.403 1066.27 341.308 C 1094.82 341.035 1124.33 338.236 1152.97 338.804 L 1152.86 285.371 z"/>
<path transform="translate(0,0)" fill="rgba(23, 63, 98, 1)" d="M 466.679 122.271 C 476.962 120.714 503.625 119.783 514.041 120.134 C 529.757 119.896 550.373 119.479 566.039 120.14 C 572.527 120.139 578.969 121.237 585.09 123.388 C 612.39 125.977 633.917 134.472 646.179 160.782 C 649.936 168.844 649.916 174.257 650.777 182.972 C 651.354 189.811 651.848 196.656 652.258 203.507 C 653.569 214.697 652.388 229.128 652.794 240.661 C 653.514 264.319 653.579 287.61 652.785 311.282 C 652.124 330.971 653.581 350.61 652.349 370.353 C 650.566 393.118 645.546 397.158 623.262 399.028 C 604.348 400.615 585.95 399 567.238 399.635 C 555.36 400.039 539.401 398.957 528.429 399.684 C 474.939 403.231 421.368 394.328 415.805 330.187 C 407.438 254.737 447.528 224.646 520.715 228.201 C 536.534 228.827 565.857 231.365 581.49 229.054 L 590.314 221.174 C 590.304 214.321 590.599 198.465 589.68 192.469 C 588.061 191.32 585.153 186.912 583.842 185.074 C 552.943 171.427 491.107 183.595 455.743 179.098 C 427.395 175.494 431.445 157.375 433.325 135.618 C 442.029 122.789 451.853 121.521 466.679 122.271 z M 521.936 343.335 C 540.689 338.152 567.525 340.692 587.033 338.785 C 587.866 338.107 588.572 337.533 589.15 337.062 C 587.476 321.716 587.505 300.309 590.132 285.083 C 568.139 285.188 519.459 283.785 499.615 285.803 C 489.727 292.35 486.899 293.748 481.095 303.697 C 480.629 333.894 487.46 342.199 518.519 343.147 C 519.595 343.18 520.88 343.167 521.936 343.335 z"/>
<path transform="translate(0,0)" fill="rgba(95, 118, 147, 1)" d="M 650.777 182.972 C 651.354 189.811 651.848 196.656 652.258 203.507 C 652.126 213.464 651.771 223.416 651.193 233.356 C 648.831 223.814 646.016 191.236 650.777 182.972 z"/>
<path transform="translate(0,0)" fill="rgba(95, 118, 147, 1)" d="M 466.679 122.271 C 476.962 120.714 503.625 119.783 514.041 120.134 L 513.24 122.227 C 504.452 123.59 474.471 124.755 465.885 123.493 C 466.053 122.547 465.851 122.891 466.679 122.271 z"/>
<path transform="translate(0,0)" fill="rgba(129, 149, 174, 1)" d="M 589.68 192.469 L 590.944 192.091 C 594.805 198.443 594.187 211.234 592.447 218.396 C 592.006 220.188 591.514 221.967 590.973 223.731 C 588.335 225.996 585.152 229.043 581.49 229.054 L 590.314 221.174 C 590.304 214.321 590.599 198.465 589.68 192.469 z"/>
<path transform="translate(0,0)" fill="rgba(95, 118, 147, 1)" d="M 566.039 120.14 C 572.527 120.139 578.969 121.237 585.09 123.388 C 580.139 124.433 562.564 123.88 558.275 122.184 C 560.199 120.508 563.18 120.567 566.039 120.14 z"/>
<path transform="translate(0,0)" fill="rgba(129, 149, 174, 1)" d="M 589.15 337.062 C 589.967 340.194 590.28 339.399 588.946 341.682 C 582.529 342.478 526.541 344.449 521.936 343.335 C 540.689 338.152 567.525 340.692 587.033 338.785 C 587.866 338.107 588.572 337.533 589.15 337.062 z"/>
<path transform="translate(0,0)" fill="rgba(23, 63, 98, 1)" d="M 1300.24 0 L 1300.82 0 C 1302.89 2.4455 1308.05 2.83142 1311.41 3.43525 C 1315.65 4.40655 1320.28 5.3467 1324.37 6.7592 C 1326.01 10.7757 1327.75 14.8946 1329.28 18.9404 C 1330.48 28.2533 1329.49 40.4316 1329.7 50.0247 C 1330.2 72.5707 1328.68 97.8485 1329.57 120.181 L 1380.27 119.944 C 1414.81 119.803 1452.22 117.771 1480.85 143.747 C 1501.3 162.303 1503.94 203.675 1504.04 230.045 C 1504.11 247.372 1502.33 268.806 1502.02 287.011 C 1501.74 303.125 1503.73 326.078 1501.4 341.327 C 1499.71 352.362 1487.92 371.521 1479.65 379.663 C 1459 399.995 1424.93 399.022 1397.9 399.384 C 1391.07 399.476 1369.66 398.393 1364.76 403 L 1327.86 403 C 1319.73 396.588 1286.7 401.961 1275.62 398.477 C 1272.97 397.642 1268.62 394.827 1266.2 393.276 C 1266.2 306.045 1264.59 214.994 1266.29 128.114 C 1264.55 118.809 1264.5 19.6295 1266.38 11.016 C 1271.56 6.42668 1273.33 4.28445 1280.17 3.48581 C 1286.24 2.31932 1296.73 2.95099 1300.24 0 z M 1331.77 254.487 C 1331.78 274.218 1331.61 293.949 1331.27 313.677 C 1331.14 321.691 1330.36 332.416 1330.75 340.04 C 1363.23 334.306 1433.36 356.374 1438.04 309.93 C 1437.62 300.771 1437.98 288.765 1438 279.396 C 1436.09 270.894 1436.13 217.814 1438.27 209.324 C 1438.27 208.717 1438.25 208.111 1438.22 207.505 C 1437.98 201.829 1432.47 188.586 1427.93 185.433 C 1415.33 176.683 1390.34 179.295 1375.73 179.209 C 1361.04 179.122 1346.3 178.534 1332.6 179.374 L 1331.44 181.83 C 1332.37 192.229 1330.6 205.537 1330.65 216.564 C 1330.7 228.713 1332.31 242.733 1331.77 254.487 z"/>
<path transform="translate(0,0)" fill="rgba(54, 86, 123, 1)" d="M 1300.24 0 L 1300.82 0 C 1302.89 2.4455 1308.05 2.83142 1311.41 3.43525 L 1309.76 5.30832 C 1306.89 5.09763 1301.62 5.26479 1298.56 5.25954 C 1292.56 6.53939 1282.25 6.27505 1275.81 6.32177 C 1273.37 8.21626 1270.51 10.5581 1267.93 12.1453 C 1267.99 25.3409 1269.57 122.021 1266.49 127.74 C 1266.45 127.818 1266.41 127.899 1266.37 127.977 C 1266.34 128.024 1266.31 128.068 1266.29 128.114 C 1264.55 118.809 1264.5 19.6295 1266.38 11.016 C 1271.56 6.42668 1273.33 4.28445 1280.17 3.48581 C 1286.24 2.31932 1296.73 2.95099 1300.24 0 z"/>
<path transform="translate(0,0)" fill="rgba(129, 149, 174, 1)" d="M 1300.24 0 L 1300.82 0 C 1302.89 2.4455 1308.05 2.83142 1311.41 3.43525 L 1309.76 5.30832 C 1306.89 5.09763 1301.62 5.26479 1298.56 5.25954 C 1294.15 5.22698 1283.41 5.7383 1280.17 3.48581 C 1286.24 2.31932 1296.73 2.95099 1300.24 0 z"/>
<path transform="translate(0,0)" fill="rgba(95, 118, 147, 1)" d="M 1311.41 3.43525 C 1315.65 4.40655 1320.28 5.3467 1324.37 6.7592 C 1326.01 10.7757 1327.75 14.8946 1329.28 18.9404 C 1329.13 24.5045 1329.2 31.3018 1327.85 36.5871 C 1325.63 32.0192 1325.62 15.0334 1323.58 10.164 C 1322.19 6.82964 1313.57 5.87312 1309.76 5.30832 L 1311.41 3.43525 z"/>
<path transform="translate(0,0)" fill="rgba(163, 177, 197, 1)" d="M 1438.04 309.93 L 1439.46 305.82 C 1440.82 338.358 1418.14 341.29 1390.62 342.883 C 1383.08 343.32 1332.49 343.586 1330.14 341.992 L 1330.75 340.04 C 1363.23 334.306 1433.36 356.374 1438.04 309.93 z"/>
<path transform="translate(0,0)" fill="rgba(95, 118, 147, 1)" d="M 1330.11 283.491 C 1328.7 272.28 1325.17 182.997 1328.61 178.443 L 1330.7 179.197 L 1331.44 181.83 C 1332.37 192.229 1330.6 205.537 1330.65 216.564 C 1330.7 228.713 1332.31 242.733 1331.77 254.487 C 1330.49 262.457 1331.49 273.986 1330.11 283.491 z"/>
<path transform="translate(0,0)" fill="rgba(163, 177, 197, 1)" d="M 1438.27 209.324 C 1439.71 218.987 1440.54 270.652 1438 279.396 C 1436.09 270.894 1436.13 217.814 1438.27 209.324 z"/>
<path transform="translate(0,0)" fill="rgba(23, 63, 98, 1)" d="M 351.725 123.267 C 364.006 120.699 379.946 119.298 392.107 123.182 C 403.369 127.261 400.313 137.7 398.358 146.901 C 395.779 159.041 391.913 171.008 388.852 183.058 L 363.411 282.12 L 345.571 353.832 C 341.97 368.117 340.081 383.454 332.196 396.206 C 317.567 400.891 300.627 399.767 285.328 399.258 C 284.869 399.275 284.409 399.283 283.949 399.28 C 273.566 399.234 260.471 400.303 252.996 392.771 C 241.663 376.271 222.242 277.979 214.882 252.668 C 211.563 241.252 208.945 224.495 202.176 213.472 C 191.796 225.663 193.29 239.654 188.332 252.35 C 177.571 279.91 161.938 383.573 139.252 398.828 C 121.105 400.243 84.0427 402.373 69.1376 393.912 C 62.6243 383.175 53.0722 339.988 49.4871 326.142 C 47.1419 317.084 43.3746 304.715 41.0402 295.647 L 14.1908 190.049 C 11.1366 178.195 5.66811 144.099 0 136.817 L 0 128.124 C 12.7848 118.76 42.7731 124.294 58.765 123.559 C 60.5259 123.478 62.5693 125.616 63.4762 127.064 C 76.5788 147.981 100.96 317.065 113.371 320.664 C 125.089 311.283 151.812 148.059 170.789 126.559 C 171.486 125.769 172.672 124.873 173.488 124.188 C 191.415 124.515 218.051 118.785 234.998 124.605 C 242.401 127.147 251.911 173.706 254.101 182.423 L 277.438 276.244 C 281.756 293.713 283.606 308.029 290.839 324.812 C 298.257 311.778 298.071 299.04 301.339 286.775 C 309.129 257.532 328.455 144.101 340.813 124.834 C 344.014 124.208 348.402 123.733 351.725 123.267 z"/>
<path transform="translate(0,0)" fill="rgba(129, 149, 174, 1)" d="M 351.725 123.267 C 364.006 120.699 379.946 119.298 392.107 123.182 C 385.671 124.853 358.658 124.258 351.725 123.267 z"/>
<path transform="translate(0,0)" fill="rgba(95, 118, 147, 1)" d="M 252.996 392.771 C 262.39 396.327 278.429 394.771 285.328 399.258 C 284.869 399.275 284.409 399.283 283.949 399.28 C 273.566 399.234 260.471 400.303 252.996 392.771 z"/>
<path transform="translate(0,0)" fill="rgba(23, 63, 98, 1)" d="M 1545.06 241.51 C 1544.46 208.476 1538.56 172.125 1563.8 145.973 C 1583.51 125.548 1609.27 121.53 1636 119.908 C 1700.49 115.993 1761.15 126.296 1760.9 204.787 C 1760.86 218.698 1760.24 234.466 1760.01 248.583 C 1759.37 291.69 1769.18 342.631 1738.9 377.769 C 1719.18 400.649 1683.69 398.018 1677.03 403 L 1632.88 403 C 1626.07 397.97 1616.24 400.433 1608.31 398.844 C 1587.7 394.716 1566.76 384.002 1556.88 364.543 C 1553.43 357.752 1548.69 346.66 1548.58 339.101 C 1545.06 329.206 1544.72 326.07 1545.06 315.539 C 1544.64 300.998 1544.91 285.815 1544.96 271.222 C 1544.89 261.318 1544.92 251.413 1545.06 241.51 z M 1607.91 211.683 C 1610.1 221.895 1608.08 237.988 1608.27 249.061 C 1608.49 261.456 1609.5 274.842 1608.87 287.053 C 1609.12 306.56 1607.07 324.009 1621.4 338.511 C 1632.74 340.565 1664.98 339.598 1678.37 339.467 C 1688.52 332.261 1689.73 331.493 1695.72 320.752 L 1695.05 307.622 C 1691.58 289.874 1690.21 230.257 1695.57 214.012 C 1695.45 198.337 1691.36 197.813 1686.64 183.703 C 1679.57 183.596 1672.67 183.46 1665.66 182.373 C 1659.12 181.359 1654.25 179.86 1647.59 179.754 C 1637.19 183.047 1632 184.193 1621.07 184.448 C 1613.62 190.668 1612.11 193.376 1607.93 202.183 C 1608.07 205.311 1608.32 208.59 1607.91 211.683 z"/>
<path transform="translate(0,0)" fill="rgba(54, 86, 123, 1)" d="M 1545.06 241.51 C 1549.1 253.594 1549.69 259.095 1544.96 271.222 C 1544.89 261.318 1544.92 251.413 1545.06 241.51 z"/>
<path transform="translate(0,0)" fill="rgba(95, 118, 147, 1)" d="M 1545.06 315.539 C 1549.59 319.407 1549.89 333.735 1548.58 339.101 C 1545.06 329.206 1544.72 326.07 1545.06 315.539 z"/>
<path transform="translate(0,0)" fill="rgba(163, 177, 197, 1)" d="M 1695.57 214.012 L 1696.56 209.514 C 1697.49 211.27 1696.5 311.223 1696.37 311.431 L 1695.05 307.622 C 1691.58 289.874 1690.21 230.257 1695.57 214.012 z"/>
<path transform="translate(0,0)" fill="rgba(95, 118, 147, 1)" d="M 1607.91 211.683 C 1610.1 221.895 1608.08 237.988 1608.27 249.061 C 1608.49 261.456 1609.5 274.842 1608.87 287.053 C 1602.55 279.782 1603.36 222.488 1607.91 211.683 z"/>
<path transform="translate(0,0)" fill="rgba(129, 149, 174, 1)" d="M 1616.25 183.776 C 1626.59 179.826 1636.46 177.33 1647.59 179.754 C 1637.19 183.047 1632 184.193 1621.07 184.448 C 1613.62 190.668 1612.11 193.376 1607.93 202.183 C 1605.01 194.517 1611.5 189.188 1616.25 183.776 z"/>
<path transform="translate(0,0)" fill="rgba(23, 63, 98, 1)" d="M 715.656 5.00769 C 732.198 4.94114 748.317 2.48893 763.923 9.19979 C 763.87 25.8009 760.45 109.578 769.513 118.708 C 775.07 124.305 786.521 124.247 793.864 124.175 C 832.514 123.797 892.544 112.066 922.905 141.651 C 931.928 150.443 939.991 164.103 941.711 176.712 C 948.706 192.456 945.898 264.934 945.246 285.031 L 944.786 285.741 C 945.581 315.592 946.197 353.829 945.967 383.528 C 939.569 393.07 937.949 397.366 925.808 400.486 C 923.617 401.049 921.483 401.495 919.776 403 L 903.938 403 C 899.361 399.409 890.38 399.724 886.984 396.342 C 880.489 389.874 881.683 364.556 881.239 354.642 C 879.021 322.811 881.879 283.68 880.825 251.319 C 880.123 229.764 882.724 217.448 877.586 195.315 C 875.129 189.013 871.812 185.599 865.593 182.843 C 861.322 180.95 856.554 179.869 851.918 179.388 C 839.414 178.089 778.849 177.302 769.436 181.13 C 767.98 181.722 766.878 182.31 766.28 183.798 C 760.34 198.588 764.872 315.243 764.923 341.128 C 764.956 358.384 763.335 375.941 763.958 393.112 C 755.172 399.024 746.913 399.68 742.822 403 L 725.862 403 C 718.403 397.581 713.633 401.079 706.733 395.669 C 696.629 390.396 700.719 354.504 699.734 342.387 C 698.725 336.89 699.149 306.257 699.165 299.13 L 699.351 202.86 L 699.228 87.6123 C 699.206 74.4667 698.319 41.7559 699.791 29.9751 C 700.095 23.919 700.458 17.8659 700.879 11.8168 C 705.883 8.59363 710.034 6.794 715.656 5.00769 z"/>
<path transform="translate(0,0)" fill="rgba(95, 118, 147, 1)" d="M 941.711 176.712 C 948.706 192.456 945.898 264.934 945.246 285.031 L 944.786 285.741 L 944.06 285.042 C 940.406 274.865 943.128 236.404 942.28 223.139 C 941.837 216.206 940.538 181.583 941.711 176.712 z"/>
<path transform="translate(0,0)" fill="rgba(95, 118, 147, 1)" d="M 699.734 342.387 C 699.881 308.526 700.22 274.667 700.749 240.811 C 703.358 266.013 700.658 382.946 706.733 395.669 C 696.629 390.396 700.719 354.504 699.734 342.387 z"/>
<path transform="translate(0,0)" fill="rgba(95, 118, 147, 1)" d="M 877.586 195.315 C 883.41 198.751 883.915 222.459 883.041 228.556 C 880.49 246.354 886.69 343.643 882.218 354.497 L 881.239 354.642 C 879.021 322.811 881.879 283.68 880.825 251.319 C 880.123 229.764 882.724 217.448 877.586 195.315 z"/>
<path transform="translate(0,0)" fill="rgba(95, 118, 147, 1)" d="M 700.879 11.8168 C 705.883 8.59363 710.034 6.794 715.656 5.00769 L 719.441 6.37159 L 719.322 7.52719 C 713.928 9.47801 709.726 9.73524 704.442 11.0075 C 699.868 54.738 702.808 111.907 701.029 156.805 C 699.878 146.645 700.351 132.476 700.45 121.906 C 700.736 91.327 699.448 60.5117 699.791 29.9751 C 700.095 23.919 700.458 17.8659 700.879 11.8168 z"/>
<path transform="translate(0,0)" fill="rgba(23, 63, 98, 1)" d="M 1986.93 123.27 C 2001.61 118.663 2020.09 119.062 2034.94 122.588 C 2040.83 124.278 2043.7 124.821 2048 129.462 L 2048 131.711 C 2025.84 167.687 2001.58 197.073 1976.34 230.662 C 1968.94 240.507 1960.76 249.917 1954.1 260.205 C 1984.1 298.644 2015.24 337.856 2043.46 377.591 C 2045.2 380.043 2046.36 383.799 2048 386.094 L 2048 391.472 C 2044.75 394.722 2043.35 396.137 2039.43 398.754 C 2020.02 401.505 2007.06 399.588 1988.51 399.788 C 1961.7 378.694 1935.94 335.717 1915.63 308.438 C 1892.51 337.323 1874.29 369.46 1850.24 399.169 C 1846.71 400.045 1841.96 400.896 1839.13 403 L 1802.14 403 C 1795.87 397.8 1789.17 400.987 1785.31 392.841 C 1785.35 374.236 1860.66 278.404 1875.8 261.426 C 1856.91 229.214 1844.21 217.024 1822.95 188.976 C 1808.87 170.237 1796.18 150.501 1784.96 129.924 C 1791.16 124.428 1792.29 124.146 1800.2 123.609 C 1816.61 120.364 1826.89 119.555 1843.84 122.473 C 1847.48 123.141 1851.55 123.79 1855.12 124.559 C 1873.54 140.593 1895.7 189.197 1916.08 207.506 C 1933.08 190.148 1946.08 168.471 1960.98 149.349 C 1967.39 141.115 1976.31 124.663 1986.93 123.27 z"/>
<path transform="translate(0,0)" fill="rgba(95, 118, 147, 1)" d="M 1986.93 123.27 C 2001.61 118.663 2020.09 119.062 2034.94 122.588 C 2032.03 125.086 2014.15 123.413 2009.16 123.511 C 2003.3 123.627 1992.18 124.602 1986.93 123.27 z"/>
<path transform="translate(0,0)" fill="rgba(95, 118, 147, 1)" d="M 1800.2 123.609 C 1816.61 120.364 1826.89 119.555 1843.84 122.473 C 1840.76 124.622 1802.49 125.399 1800.2 123.609 z"/>
</g></svg></svg></svg>